<svg width="89" height="47" viewBox="0 0 89 47" fill="none" xmlns="http://www.w3.org/2000/svg">
<path d="M38.9773 0.454544V47H30.4773L10.2273 17.7045H9.88636V47H0.0454545V0.454544H8.68182L28.7727 29.7273H29.1818V0.454544H38.9773ZM53.508 47V0.454544H71.8716C75.4019 0.454544 78.4095 1.12879 80.8943 2.47727C83.3792 3.81061 85.2731 5.66667 86.5761 8.04545C87.8943 10.4091 88.5534 13.1364 88.5534 16.2273C88.5534 19.3182 87.8867 22.0455 86.5534 24.4091C85.2201 26.7727 83.2883 28.6136 80.758 29.9318C78.2428 31.25 75.1974 31.9091 71.6216 31.9091H59.917V24.0227H70.0307C71.9246 24.0227 73.4852 23.697 74.7125 23.0455C75.9549 22.3788 76.8792 21.4621 77.4852 20.2955C78.1064 19.1136 78.417 17.7576 78.417 16.2273C78.417 14.6818 78.1064 13.3333 77.4852 12.1818C76.8792 11.0151 75.9549 10.1136 74.7125 9.47727C73.4701 8.82576 71.8943 8.5 69.9852 8.5H63.3489V47H53.508Z" fill="#F80000"/>
</svg>
