<svg width="606" height="223" viewBox="0 0 606 223" fill="none" xmlns="http://www.w3.org/2000/svg">
<g clip-path="url(#clip0_307_989)">
<path d="M20.17 49.93H19.77V148.49C13.1833 148.93 6.59333 149.387 0 149.86V14.09C9.19333 13.3033 18.38 12.55 27.56 11.83C34.9533 38.4233 42.3467 65.09 49.74 91.83H50.14V10.12C56.6733 9.65333 63.2033 9.19667 69.73 8.75V145.52C62.1967 145.92 54.6667 146.347 47.14 146.8C38.1533 114.393 29.1633 82.1033 20.17 49.93Z" fill="url(#paint0_linear_307_989)"/>
<path d="M103.71 39.55C103.71 17.61 115.51 4.33 137.11 3.23C158.71 2.13 170.51 14.33 170.51 36.44V108.28C170.51 130.41 158.71 143.28 137.11 144.07C115.51 144.86 103.71 132.87 103.71 110.91V39.55ZM125.71 111.29C125.71 121.12 130.11 124.67 137.11 124.4C144.11 124.13 148.51 120.25 148.51 110.4V36C148.51 26.15 144.11 22.6 137.11 22.94C130.11 23.28 125.71 27.24 125.71 37.06V111.29Z" fill="url(#paint1_linear_307_989)"/>
<path d="M198.33 2.23C220.997 1.46333 243.663 0.89333 266.33 0.519997V20.44C258.657 20.56 250.99 20.6933 243.33 20.84V140.14C235.997 140.2 228.663 140.283 221.33 140.39V21.39C213.657 21.59 205.99 21.81 198.33 22.05V2.23Z" fill="url(#paint2_linear_307_989)"/>
<path d="M318 62.31C327.473 62.31 336.947 62.3733 346.42 62.5V82.59C336.94 82.47 327.467 82.3867 318 82.34V140.23C310.667 140.15 303.333 140.09 296 140.05V0.150001C315.4 -0.0233324 334.81 -0.0466657 354.23 0.080001V20.18C342.163 20.06 330.087 20.0167 318 20.05V62.31Z" fill="url(#paint3_linear_307_989)"/>
<path d="M384.85 0.400002C392.183 0.500002 399.517 0.623335 406.85 0.770002V122C418.93 122.38 431.003 122.823 443.07 123.33V143.6C423.663 142.76 404.253 142.067 384.84 141.52L384.85 0.400002Z" fill="url(#paint4_linear_307_989)"/>
<path d="M472.68 2.66C480.013 2.93334 487.347 3.22667 494.68 3.54V146.19C487.347 145.777 480.013 145.383 472.68 145.01V2.66Z" fill="url(#paint5_linear_307_989)"/>
<path d="M604 9.78C596.347 32.5933 588.68 55.36 581 78.08C589.193 103.333 597.383 128.667 605.57 154.08C597.85 153.413 590.127 152.773 582.4 152.16C576.487 132.72 570.567 113.333 564.64 94H564.24C558.24 112.533 552.24 131.043 546.24 149.53C539.38 149.037 532.52 148.573 525.66 148.14C533.853 124.14 542.047 100.107 550.24 76.04C542.58 52.3333 534.913 28.6967 527.24 5.13C534.827 5.51666 542.42 5.93 550.02 6.37C555.48 24.3033 560.943 42.2767 566.41 60.29H566.81C572.397 43.0233 577.99 25.7333 583.59 8.42C590.397 8.80666 597.2 9.26 604 9.78Z" fill="url(#paint6_linear_307_989)"/>
</g>
<path d="M148.045 208V161.455H166.409C169.939 161.455 172.947 162.129 175.432 163.477C177.917 164.811 179.811 166.667 181.114 169.045C182.432 171.409 183.091 174.136 183.091 177.227C183.091 180.318 182.424 183.045 181.091 185.409C179.758 187.773 177.826 189.614 175.295 190.932C172.78 192.25 169.735 192.909 166.159 192.909H154.455V185.023H164.568C166.462 185.023 168.023 184.697 169.25 184.045C170.492 183.379 171.417 182.462 172.023 181.295C172.644 180.114 172.955 178.758 172.955 177.227C172.955 175.682 172.644 174.333 172.023 173.182C171.417 172.015 170.492 171.114 169.25 170.477C168.008 169.826 166.432 169.5 164.523 169.5H157.886V208H148.045ZM195.701 208V173.091H205.088V179.182H205.451C206.088 177.015 207.156 175.379 208.656 174.273C210.156 173.152 211.883 172.591 213.838 172.591C214.322 172.591 214.845 172.621 215.406 172.682C215.966 172.742 216.459 172.826 216.883 172.932V181.523C216.428 181.386 215.8 181.265 214.997 181.159C214.194 181.053 213.459 181 212.792 181C211.368 181 210.095 181.311 208.974 181.932C207.868 182.538 206.989 183.386 206.338 184.477C205.701 185.568 205.383 186.826 205.383 188.25V208H195.701ZM242.573 208.682C238.982 208.682 235.891 207.955 233.3 206.5C230.724 205.03 228.739 202.955 227.345 200.273C225.952 197.576 225.255 194.386 225.255 190.705C225.255 187.114 225.952 183.962 227.345 181.25C228.739 178.538 230.702 176.424 233.232 174.909C235.777 173.394 238.762 172.636 242.186 172.636C244.489 172.636 246.633 173.008 248.618 173.75C250.618 174.477 252.361 175.576 253.845 177.045C255.345 178.515 256.512 180.364 257.345 182.591C258.179 184.803 258.595 187.394 258.595 190.364V193.023H229.118V187.023H249.482C249.482 185.629 249.179 184.394 248.573 183.318C247.967 182.242 247.126 181.402 246.05 180.795C244.989 180.174 243.755 179.864 242.345 179.864C240.876 179.864 239.573 180.205 238.436 180.886C237.315 181.553 236.436 182.455 235.8 183.591C235.164 184.712 234.838 185.962 234.823 187.341V193.045C234.823 194.773 235.141 196.265 235.777 197.523C236.429 198.78 237.345 199.75 238.527 200.432C239.709 201.114 241.111 201.455 242.732 201.455C243.808 201.455 244.792 201.303 245.686 201C246.58 200.697 247.345 200.242 247.982 199.636C248.618 199.03 249.103 198.288 249.436 197.409L258.391 198C257.936 200.152 257.005 202.03 255.595 203.636C254.202 205.227 252.398 206.47 250.186 207.364C247.989 208.242 245.452 208.682 242.573 208.682ZM271.314 208V173.091H280.541V179.25H280.95C281.677 177.205 282.889 175.591 284.586 174.409C286.283 173.227 288.314 172.636 290.677 172.636C293.071 172.636 295.109 173.235 296.791 174.432C298.473 175.614 299.594 177.22 300.155 179.25H300.518C301.23 177.25 302.518 175.652 304.382 174.455C306.261 173.242 308.48 172.636 311.041 172.636C314.298 172.636 316.942 173.674 318.973 175.75C321.018 177.811 322.041 180.735 322.041 184.523V208H312.382V186.432C312.382 184.492 311.867 183.038 310.836 182.068C309.806 181.098 308.518 180.614 306.973 180.614C305.215 180.614 303.844 181.174 302.859 182.295C301.874 183.402 301.382 184.864 301.382 186.682V208H291.995V186.227C291.995 184.515 291.503 183.152 290.518 182.136C289.548 181.121 288.268 180.614 286.677 180.614C285.602 180.614 284.632 180.886 283.768 181.432C282.92 181.962 282.245 182.712 281.745 183.682C281.245 184.636 280.995 185.758 280.995 187.045V208H271.314ZM336.089 208V173.091H345.77V208H336.089ZM340.952 168.591C339.513 168.591 338.278 168.114 337.248 167.159C336.233 166.189 335.725 165.03 335.725 163.682C335.725 162.348 336.233 161.205 337.248 160.25C338.278 159.28 339.513 158.795 340.952 158.795C342.392 158.795 343.619 159.28 344.634 160.25C345.664 161.205 346.18 162.348 346.18 163.682C346.18 165.03 345.664 166.189 344.634 167.159C343.619 168.114 342.392 168.591 340.952 168.591ZM382.312 193.136V173.091H391.994V208H382.699V201.659H382.335C381.547 203.705 380.237 205.348 378.403 206.591C376.585 207.833 374.366 208.455 371.744 208.455C369.411 208.455 367.358 207.924 365.585 206.864C363.813 205.803 362.426 204.295 361.426 202.341C360.441 200.386 359.941 198.045 359.926 195.318V173.091H369.608V193.591C369.623 195.652 370.176 197.28 371.267 198.477C372.358 199.674 373.82 200.273 375.653 200.273C376.82 200.273 377.911 200.008 378.926 199.477C379.941 198.932 380.759 198.129 381.381 197.068C382.017 196.008 382.328 194.697 382.312 193.136ZM406.139 208V173.091H415.366V179.25H415.775C416.502 177.205 417.714 175.591 419.411 174.409C421.108 173.227 423.139 172.636 425.502 172.636C427.896 172.636 429.934 173.235 431.616 174.432C433.298 175.614 434.419 177.22 434.98 179.25H435.343C436.055 177.25 437.343 175.652 439.207 174.455C441.086 173.242 443.305 172.636 445.866 172.636C449.123 172.636 451.767 173.674 453.798 175.75C455.843 177.811 456.866 180.735 456.866 184.523V208H447.207V186.432C447.207 184.492 446.692 183.038 445.661 182.068C444.631 181.098 443.343 180.614 441.798 180.614C440.04 180.614 438.669 181.174 437.684 182.295C436.699 183.402 436.207 184.864 436.207 186.682V208H426.82V186.227C426.82 184.515 426.328 183.152 425.343 182.136C424.373 181.121 423.093 180.614 421.502 180.614C420.427 180.614 419.457 180.886 418.593 181.432C417.745 181.962 417.07 182.712 416.57 183.682C416.07 184.636 415.82 185.758 415.82 187.045V208H406.139Z" fill="#F80000"/>
<defs>
<linearGradient id="paint0_linear_307_989" x1="34.865" y1="8.75" x2="34.865" y2="149.86" gradientUnits="userSpaceOnUse">
<stop stop-color="#E90000"/>
<stop offset="0.494792" stop-color="#FF8C8C"/>
<stop offset="1" stop-color="#F80000"/>
</linearGradient>
<linearGradient id="paint1_linear_307_989" x1="137.11" y1="3.16152" x2="137.11" y2="144.107" gradientUnits="userSpaceOnUse">
<stop stop-color="#E90000"/>
<stop offset="0.494792" stop-color="#FF8C8C"/>
<stop offset="1" stop-color="#F80000"/>
</linearGradient>
<linearGradient id="paint2_linear_307_989" x1="232.33" y1="0.519997" x2="232.33" y2="140.39" gradientUnits="userSpaceOnUse">
<stop stop-color="#E90000"/>
<stop offset="0.494792" stop-color="#FF8C8C"/>
<stop offset="1" stop-color="#F80000"/>
</linearGradient>
<linearGradient id="paint3_linear_307_989" x1="325.115" y1="-0.000221252" x2="325.115" y2="140.23" gradientUnits="userSpaceOnUse">
<stop stop-color="#E90000"/>
<stop offset="0.494792" stop-color="#FF8C8C"/>
<stop offset="1" stop-color="#F80000"/>
</linearGradient>
<linearGradient id="paint4_linear_307_989" x1="413.955" y1="0.400002" x2="413.955" y2="143.6" gradientUnits="userSpaceOnUse">
<stop stop-color="#E90000"/>
<stop offset="0.494792" stop-color="#FF8C8C"/>
<stop offset="1" stop-color="#F80000"/>
</linearGradient>
<linearGradient id="paint5_linear_307_989" x1="483.68" y1="2.66" x2="483.68" y2="146.19" gradientUnits="userSpaceOnUse">
<stop stop-color="#E90000"/>
<stop offset="0.494792" stop-color="#FF8C8C"/>
<stop offset="1" stop-color="#F80000"/>
</linearGradient>
<linearGradient id="paint6_linear_307_989" x1="565.615" y1="5.13" x2="565.615" y2="154.08" gradientUnits="userSpaceOnUse">
<stop stop-color="#E90000"/>
<stop offset="0.494792" stop-color="#FF8C8C"/>
<stop offset="1" stop-color="#F80000"/>
</linearGradient>
<clipPath id="clip0_307_989">
<rect width="605.59" height="154.09" fill="white"/>
</clipPath>
</defs>
</svg>
