<svg width="40" height="34" viewBox="0 0 40 34" fill="none" xmlns="http://www.w3.org/2000/svg">
<path d="M0 2.8C0 1.25125 1.25125 0 2.8 0H36.4C37.9487 0 39.2 1.25125 39.2 2.8C39.2 4.34875 37.9487 5.6 36.4 5.6H2.8C1.25125 5.6 0 4.34875 0 2.8ZM0 16.8C0 15.2512 1.25125 14 2.8 14H36.4C37.9487 14 39.2 15.2512 39.2 16.8C39.2 18.3487 37.9487 19.6 36.4 19.6H2.8C1.25125 19.6 0 18.3487 0 16.8ZM39.2 30.8C39.2 32.3488 37.9487 33.6 36.4 33.6H2.8C1.25125 33.6 0 32.3488 0 30.8C0 29.2512 1.25125 28 2.8 28H36.4C37.9487 28 39.2 29.2512 39.2 30.8Z" fill="#F80000"/>
</svg>
