<svg width="122" height="45" viewBox="0 0 122 45" fill="none" xmlns="http://www.w3.org/2000/svg">
<g clip-path="url(#clip0_357_1702)">
<path d="M4.034 9.986H3.954V29.698C2.63667 29.786 1.31867 29.8773 0 29.972V2.818C1.83867 2.66067 3.676 2.51 5.512 2.366C6.99066 7.68467 8.46933 13.018 9.948 18.366H10.028V2.024C11.3347 1.93067 12.6407 1.83933 13.946 1.75V29.104C12.4393 29.184 10.9333 29.2693 9.428 29.36C7.63066 22.8787 5.83266 16.4207 4.034 9.986Z" fill="url(#paint0_linear_357_1702)"/>
<path d="M20.742 7.91002C20.742 3.52202 23.102 0.866019 27.422 0.646019C31.742 0.426019 34.102 2.86602 34.102 7.28802V21.656C34.102 26.082 31.742 28.656 27.422 28.814C23.102 28.972 20.742 26.574 20.742 22.182V7.91002ZM25.142 22.258C25.142 24.224 26.022 24.934 27.422 24.88C28.822 24.826 29.702 24.05 29.702 22.08V7.20002C29.702 5.23002 28.822 4.52002 27.422 4.58802C26.022 4.65602 25.142 5.44802 25.142 7.41202V22.258Z" fill="url(#paint1_linear_357_1702)"/>
<path d="M39.666 0.446004C44.1993 0.292671 48.7326 0.178671 53.266 0.104004V4.088C51.7313 4.112 50.198 4.13867 48.666 4.168V28.028C47.1993 28.04 45.7327 28.0567 44.266 28.078V4.278C42.7313 4.318 41.198 4.362 39.666 4.41V0.446004Z" fill="url(#paint2_linear_357_1702)"/>
<path d="M63.6 12.462C65.4946 12.462 67.3893 12.4747 69.284 12.5V16.518C67.388 16.494 65.4933 16.4774 63.6 16.468V28.046C62.1333 28.03 60.6666 28.018 59.2 28.01V0.0300444C63.08 -0.00462222 66.962 -0.00928889 70.846 0.0160444V4.03604C68.4326 4.01204 66.0173 4.00338 63.6 4.01004V12.462Z" fill="url(#paint3_linear_357_1702)"/>
<path d="M76.97 0.0799561C78.4367 0.0999561 79.9033 0.124623 81.37 0.153956V24.4C83.786 24.476 86.2007 24.5646 88.614 24.666V28.72C84.7327 28.552 80.8507 28.4133 76.968 28.304L76.97 0.0799561Z" fill="url(#paint4_linear_357_1702)"/>
<path d="M94.5359 0.531982C96.0026 0.586649 97.4693 0.645316 98.9359 0.707982V29.238C97.4693 29.1553 96.0026 29.0766 94.5359 29.002V0.531982Z" fill="url(#paint5_linear_357_1702)"/>
<path d="M120.8 1.956C119.269 6.51867 117.736 11.072 116.2 15.616C117.839 20.6667 119.477 25.7333 121.114 30.816C119.57 30.6827 118.025 30.5547 116.48 30.432C115.297 26.544 114.113 22.6667 112.928 18.8H112.848C111.648 22.5067 110.448 26.2087 109.248 29.906C107.876 29.8073 106.504 29.7147 105.132 29.628C106.771 24.828 108.409 20.0213 110.048 15.208C108.516 10.4667 106.983 5.73933 105.448 1.026C106.965 1.10333 108.484 1.186 110.004 1.274C111.096 4.86067 112.189 8.45533 113.282 12.058H113.362C114.479 8.60467 115.598 5.14667 116.718 1.684C118.079 1.76133 119.44 1.852 120.8 1.956Z" fill="url(#paint6_linear_357_1702)"/>
</g>
<path d="M29.6091 41.2V31.8909H33.2818C33.9879 31.8909 34.5894 32.0257 35.0864 32.2954C35.5833 32.5621 35.9621 32.9333 36.2227 33.409C36.4864 33.8818 36.6182 34.4272 36.6182 35.0454C36.6182 35.6636 36.4848 36.209 36.2182 36.6818C35.9515 37.1545 35.5651 37.5227 35.0591 37.7863C34.556 38.05 33.947 38.1818 33.2318 38.1818H30.8909V36.6045H32.9136C33.2924 36.6045 33.6045 36.5393 33.85 36.409C34.0985 36.2757 34.2833 36.0924 34.4045 35.859C34.5288 35.6227 34.5909 35.3515 34.5909 35.0454C34.5909 34.7363 34.5288 34.4666 34.4045 34.2363C34.2833 34.003 34.0985 33.8227 33.85 33.6954C33.6015 33.5651 33.2864 33.5 32.9045 33.5H31.5773V41.2H29.6091ZM39.1402 41.2V34.2181H41.0175V35.4363H41.0902C41.2175 35.003 41.4311 34.6757 41.7311 34.4545C42.0311 34.2303 42.3766 34.1181 42.7675 34.1181C42.8645 34.1181 42.969 34.1242 43.0811 34.1363C43.1932 34.1484 43.2917 34.1651 43.3766 34.1863V35.9045C43.2857 35.8772 43.1599 35.853 42.9993 35.8318C42.8387 35.8106 42.6917 35.8 42.5584 35.8C42.2735 35.8 42.019 35.8621 41.7948 35.9863C41.5735 36.1075 41.3978 36.2772 41.2675 36.4954C41.1402 36.7136 41.0766 36.9651 41.0766 37.25V41.2H39.1402ZM48.5145 41.3363C47.7963 41.3363 47.1782 41.1909 46.66 40.9C46.1448 40.606 45.7479 40.1909 45.4691 39.6545C45.1903 39.1151 45.0509 38.4772 45.0509 37.7409C45.0509 37.0227 45.1903 36.3924 45.4691 35.85C45.7479 35.3075 46.1403 34.8848 46.6463 34.5818C47.1554 34.2787 47.7524 34.1272 48.4373 34.1272C48.8979 34.1272 49.3267 34.2015 49.7236 34.35C50.1236 34.4954 50.4721 34.7151 50.7691 35.009C51.0691 35.303 51.3024 35.6727 51.4691 36.1181C51.6357 36.5606 51.7191 37.0787 51.7191 37.6727V38.2045H45.8236V37.0045H49.8963C49.8963 36.7257 49.8357 36.4787 49.7145 36.2636C49.5933 36.0484 49.4251 35.8803 49.21 35.759C48.9979 35.6348 48.7509 35.5727 48.4691 35.5727C48.1751 35.5727 47.9145 35.6409 47.6873 35.7772C47.463 35.9106 47.2873 36.0909 47.16 36.3181C47.0327 36.5424 46.9676 36.7924 46.9645 37.0681V38.209C46.9645 38.5545 47.0282 38.853 47.1554 39.1045C47.2857 39.356 47.4691 39.55 47.7054 39.6863C47.9418 39.8227 48.2221 39.8909 48.5463 39.8909C48.7615 39.8909 48.9585 39.8606 49.1373 39.8C49.316 39.7393 49.4691 39.6484 49.5963 39.5272C49.7236 39.406 49.8206 39.2575 49.8873 39.0818L51.6782 39.2C51.5873 39.6303 51.4009 40.006 51.1191 40.3272C50.8403 40.6454 50.4797 40.8939 50.0373 41.0727C49.5979 41.2484 49.0903 41.3363 48.5145 41.3363ZM54.2627 41.2V34.2181H56.1082V35.45H56.19C56.3354 35.0409 56.5779 34.7181 56.9173 34.4818C57.2566 34.2454 57.6627 34.1272 58.1354 34.1272C58.6142 34.1272 59.0218 34.2469 59.3582 34.4863C59.6945 34.7227 59.9188 35.0439 60.0309 35.45H60.1036C60.246 35.05 60.5036 34.7303 60.8763 34.4909C61.2521 34.2484 61.696 34.1272 62.2082 34.1272C62.8597 34.1272 63.3885 34.3348 63.7945 34.75C64.2036 35.1621 64.4082 35.7469 64.4082 36.5045V41.2H62.4763V36.8863C62.4763 36.4984 62.3733 36.2075 62.1673 36.0136C61.9612 35.8196 61.7036 35.7227 61.3945 35.7227C61.043 35.7227 60.7688 35.8348 60.5718 36.059C60.3748 36.2803 60.2763 36.5727 60.2763 36.9363V41.2H58.3991V36.8454C58.3991 36.503 58.3006 36.2303 58.1036 36.0272C57.9097 35.8242 57.6536 35.7227 57.3354 35.7227C57.1203 35.7227 56.9263 35.7772 56.7536 35.8863C56.5839 35.9924 56.4491 36.1424 56.3491 36.3363C56.2491 36.5272 56.1991 36.7515 56.1991 37.009V41.2H54.2627ZM67.2177 41.2V34.2181H69.1541V41.2H67.2177ZM68.1904 33.3181C67.9026 33.3181 67.6556 33.2227 67.4495 33.0318C67.2465 32.8378 67.145 32.606 67.145 32.3363C67.145 32.0696 67.2465 31.8409 67.4495 31.65C67.6556 31.456 67.9026 31.359 68.1904 31.359C68.4783 31.359 68.7238 31.456 68.9268 31.65C69.1329 31.8409 69.2359 32.0696 69.2359 32.3363C69.2359 32.606 69.1329 32.8378 68.9268 33.0318C68.7238 33.2227 68.4783 33.3181 68.1904 33.3181ZM76.4625 38.2272V34.2181H78.3988V41.2H76.5398V39.9318H76.467C76.3094 40.3409 76.0473 40.6696 75.6807 40.9181C75.317 41.1666 74.8731 41.2909 74.3488 41.2909C73.8822 41.2909 73.4716 41.1848 73.117 40.9727C72.7625 40.7606 72.4852 40.459 72.2852 40.0681C72.0882 39.6772 71.9882 39.209 71.9852 38.6636V34.2181H73.9216V38.3181C73.9246 38.7303 74.0352 39.056 74.2534 39.2954C74.4716 39.5348 74.764 39.6545 75.1307 39.6545C75.364 39.6545 75.5822 39.6015 75.7852 39.4954C75.9882 39.3863 76.1519 39.2257 76.2761 39.0136C76.4034 38.8015 76.4655 38.5393 76.4625 38.2272ZM81.2277 41.2V34.2181H83.0732V35.45H83.155C83.3004 35.0409 83.5429 34.7181 83.8822 34.4818C84.2216 34.2454 84.6277 34.1272 85.1004 34.1272C85.5792 34.1272 85.9868 34.2469 86.3232 34.4863C86.6595 34.7227 86.8838 35.0439 86.9959 35.45H87.0686C87.211 35.05 87.4686 34.7303 87.8413 34.4909C88.2171 34.2484 88.661 34.1272 89.1732 34.1272C89.8247 34.1272 90.3535 34.3348 90.7595 34.75C91.1686 35.1621 91.3732 35.7469 91.3732 36.5045V41.2H89.4413V36.8863C89.4413 36.4984 89.3383 36.2075 89.1322 36.0136C88.9262 35.8196 88.6686 35.7227 88.3595 35.7227C88.008 35.7227 87.7338 35.8348 87.5368 36.059C87.3398 36.2803 87.2413 36.5727 87.2413 36.9363V41.2H85.3641V36.8454C85.3641 36.503 85.2656 36.2303 85.0686 36.0272C84.8747 35.8242 84.6186 35.7227 84.3004 35.7227C84.0853 35.7227 83.8913 35.7772 83.7186 35.8863C83.5489 35.9924 83.4141 36.1424 83.3141 36.3363C83.2141 36.5272 83.1641 36.7515 83.1641 37.009V41.2H81.2277Z" fill="#F80000"/>
<defs>
<linearGradient id="paint0_linear_357_1702" x1="6.973" y1="1.75" x2="6.973" y2="29.972" gradientUnits="userSpaceOnUse">
<stop stop-color="#E90000"/>
<stop offset="0.494792" stop-color="#FF8C8C"/>
<stop offset="1" stop-color="#F80000"/>
</linearGradient>
<linearGradient id="paint1_linear_357_1702" x1="27.422" y1="0.632324" x2="27.422" y2="28.8214" gradientUnits="userSpaceOnUse">
<stop stop-color="#E90000"/>
<stop offset="0.494792" stop-color="#FF8C8C"/>
<stop offset="1" stop-color="#F80000"/>
</linearGradient>
<linearGradient id="paint2_linear_357_1702" x1="46.466" y1="0.104004" x2="46.466" y2="28.078" gradientUnits="userSpaceOnUse">
<stop stop-color="#E90000"/>
<stop offset="0.494792" stop-color="#FF8C8C"/>
<stop offset="1" stop-color="#F80000"/>
</linearGradient>
<linearGradient id="paint3_linear_357_1702" x1="65.023" y1="0" x2="65.023" y2="28.046" gradientUnits="userSpaceOnUse">
<stop stop-color="#E90000"/>
<stop offset="0.494792" stop-color="#FF8C8C"/>
<stop offset="1" stop-color="#F80000"/>
</linearGradient>
<linearGradient id="paint4_linear_357_1702" x1="82.791" y1="0.0799561" x2="82.791" y2="28.72" gradientUnits="userSpaceOnUse">
<stop stop-color="#E90000"/>
<stop offset="0.494792" stop-color="#FF8C8C"/>
<stop offset="1" stop-color="#F80000"/>
</linearGradient>
<linearGradient id="paint5_linear_357_1702" x1="96.7359" y1="0.531982" x2="96.7359" y2="29.238" gradientUnits="userSpaceOnUse">
<stop stop-color="#E90000"/>
<stop offset="0.494792" stop-color="#FF8C8C"/>
<stop offset="1" stop-color="#F80000"/>
</linearGradient>
<linearGradient id="paint6_linear_357_1702" x1="113.123" y1="1.026" x2="113.123" y2="30.816" gradientUnits="userSpaceOnUse">
<stop stop-color="#E90000"/>
<stop offset="0.494792" stop-color="#FF8C8C"/>
<stop offset="1" stop-color="#F80000"/>
</linearGradient>
<clipPath id="clip0_357_1702">
<rect width="121.118" height="30.818" fill="white"/>
</clipPath>
</defs>
</svg>
